<svg width="110" height="107" viewBox="0 0 110 107" fill="none" xmlns="http://www.w3.org/2000/svg">
<path opacity="0.6" d="M75.4514 68.1855L98.9979 61.4584V92.0515C98.9945 93.2753 98.5838 94.4632 97.8308 95.4279C97.0777 96.3926 96.025 97.0792 94.8386 97.3795L57.6454 106.678C55.8954 107.107 54.0674 107.107 52.3174 106.678L15.1655 97.3795C13.9754 97.0851 12.9182 96.4003 12.163 95.4345C11.4078 94.4686 10.9981 93.2775 10.9994 92.0515V61.4584L34.5458 68.1958C35.2877 68.4159 36.0579 68.5259 36.8317 68.5223C38.2674 68.5182 39.6778 68.1444 40.9271 67.437C42.1764 66.7296 43.2224 65.7124 43.9644 64.4833L54.9986 46.1619L66.05 64.4833C66.7905 65.7086 67.8343 66.7224 69.0806 67.4269C70.327 68.1313 71.7338 68.5027 73.1655 68.5051C73.939 68.511 74.7092 68.4033 75.4514 68.1855Z" fill="#FCD650"/>
<path d="M109.712 49.228L100.861 31.5527C100.601 31.0313 100.184 30.6039 99.6701 30.3298C99.1557 30.0557 98.5688 29.9485 97.9908 30.0231L54.9987 35.5058L70.7593 61.6474C71.0795 62.1751 71.5637 62.5835 72.1379 62.8101C72.7121 63.0366 73.3447 63.069 73.939 62.9021L107.952 53.1913C108.35 53.077 108.717 52.8771 109.029 52.6056C109.34 52.3341 109.589 51.9977 109.756 51.62C109.924 51.2422 110.007 50.8323 110 50.4191C109.992 50.0059 109.894 49.5993 109.712 49.228ZM9.15004 31.5527L0.298623 49.228C0.113347 49.5964 0.0117041 50.0013 0.000952298 50.4135C-0.00979946 50.8258 0.070605 51.2354 0.236425 51.613C0.402245 51.9906 0.64939 52.3269 0.960214 52.598C1.27104 52.869 1.63787 53.0681 2.03453 53.181L36.048 62.8918C36.6423 63.0586 37.2749 63.0263 37.8491 62.7998C38.4233 62.5732 38.9075 62.1648 39.2277 61.6371L54.9987 35.5058L12.0031 30.03C11.4286 29.9588 10.8461 30.0669 10.3354 30.3395C9.82466 30.6121 9.41066 31.0358 9.15004 31.5527Z" fill="#FCD650"/>
<mask id="mask0_8_39" style="mask-type:alpha" maskUnits="userSpaceOnUse" x="10" y="46" width="89" height="61">
<path opacity="0.6" d="M75.4514 68.1855L98.9979 61.4584V92.0515C98.9945 93.2753 98.5838 94.4632 97.8308 95.4279C97.0777 96.3926 96.025 97.0792 94.8386 97.3795L57.6454 106.678C55.8954 107.107 54.0674 107.107 52.3174 106.678L15.1655 97.3795C13.9754 97.0851 12.9182 96.4003 12.163 95.4345C11.4078 94.4686 10.9981 93.2775 10.9994 92.0515V61.4584L34.5458 68.1958C35.2877 68.4159 36.0579 68.5259 36.8317 68.5223C38.2674 68.5182 39.6778 68.1444 40.9271 67.437C42.1764 66.7296 43.2224 65.7124 43.9644 64.4833L54.9986 46.1619L66.05 64.4833C66.7905 65.7086 67.8343 66.7224 69.0806 67.4269C70.327 68.1313 71.7338 68.5027 73.1655 68.5051C73.939 68.511 74.7092 68.4033 75.4514 68.1855Z" fill="#FCD650"/>
</mask>
<g mask="url(#mask0_8_39)">
<path opacity="0.37" d="M54.0893 45.0983H55.5918V108.46L54.8406 108.51L54.0893 108.46V45.0983Z" fill="#FCD650"/>
</g>
<circle cx="54" cy="15" r="14.5" fill="#FCD650" fill-opacity="0.5" stroke="#FCD650"/>
<path d="M53.9813 20C53.0639 20 52.2853 19.8507 51.6453 19.552C51.0053 19.2427 50.5146 18.8107 50.1733 18.256C49.8426 17.6907 49.6773 17.0293 49.6773 16.272H51.1173C51.1173 16.6347 51.2026 17.0027 51.3733 17.376C51.5546 17.7493 51.8533 18.064 52.2693 18.32C52.6853 18.5653 53.2559 18.688 53.9813 18.688C54.9413 18.688 55.6506 18.4853 56.1093 18.08C56.5786 17.6747 56.8133 17.2107 56.8133 16.688C56.8133 16.176 56.6053 15.7493 56.1893 15.408C55.7733 15.0667 55.1706 14.8587 54.3813 14.784L53.3253 14.688C52.3013 14.592 51.4853 14.2827 50.8773 13.76C50.2693 13.2373 49.9653 12.4907 49.9653 11.52C49.9653 10.848 50.1253 10.2773 50.4453 9.808C50.7759 9.328 51.2346 8.96 51.8213 8.704C52.4186 8.448 53.1173 8.32 53.9173 8.32C54.7173 8.32 55.4053 8.464 55.9813 8.752C56.5679 9.02933 57.0213 9.44 57.3413 9.984C57.6613 10.5173 57.8212 11.1627 57.8212 11.92H56.3813C56.3813 11.536 56.2959 11.1733 56.1253 10.832C55.9546 10.48 55.6879 10.192 55.3253 9.968C54.9733 9.744 54.5039 9.632 53.9173 9.632C53.3946 9.632 52.9466 9.71733 52.5733 9.888C52.2106 10.048 51.9279 10.272 51.7253 10.56C51.5333 10.848 51.4373 11.168 51.4373 11.52C51.4373 11.9787 51.6026 12.3787 51.9333 12.72C52.2639 13.0507 52.7706 13.248 53.4533 13.312L54.5093 13.408C55.6506 13.5147 56.5626 13.8507 57.2453 14.416C57.9386 14.9707 58.2853 15.728 58.2853 16.688C58.2853 17.3493 58.1093 17.9307 57.7573 18.432C57.4053 18.9227 56.9093 19.3067 56.2693 19.584C55.6293 19.8613 54.8666 20 53.9813 20ZM53.2933 22.064V19.728H54.6693V22.064H53.2933ZM53.2293 9.104V6.768H54.6053V9.104H53.2293Z" fill="#FCD650"/>
</svg>
