<svg width="318" height="52" viewBox="0 0 318 52" fill="none" xmlns="http://www.w3.org/2000/svg">
<path d="M13.104 38.741C10.53 38.741 8.359 38.338 6.591 37.532C4.823 36.7 3.484 35.582 2.574 34.178C1.664 32.748 1.209 31.11 1.209 29.264H7.41C7.41 29.992 7.605 30.668 7.995 31.292C8.411 31.916 9.035 32.423 9.867 32.813C10.699 33.177 11.778 33.359 13.104 33.359C14.3 33.359 15.301 33.203 16.107 32.891C16.913 32.579 17.524 32.15 17.94 31.604C18.356 31.032 18.564 30.382 18.564 29.654C18.564 28.744 18.174 28.029 17.394 27.509C16.614 26.963 15.353 26.612 13.611 26.456L11.466 26.261C8.632 26.027 6.37 25.143 4.68 23.609C2.99 22.075 2.145 20.047 2.145 17.525C2.145 15.705 2.574 14.132 3.432 12.806C4.316 11.48 5.538 10.466 7.098 9.764C8.658 9.036 10.504 8.672 12.636 8.672C14.872 8.672 16.783 9.062 18.369 9.842C19.981 10.596 21.216 11.675 22.074 13.079C22.932 14.457 23.361 16.082 23.361 17.954H17.121C17.121 17.252 16.952 16.615 16.614 16.043C16.276 15.445 15.769 14.964 15.093 14.6C14.443 14.236 13.624 14.054 12.636 14.054C11.7 14.054 10.907 14.21 10.257 14.522C9.633 14.834 9.165 15.263 8.853 15.809C8.541 16.329 8.385 16.901 8.385 17.525C8.385 18.331 8.671 19.033 9.243 19.631C9.815 20.229 10.751 20.58 12.051 20.684L14.235 20.879C16.315 21.061 18.148 21.516 19.734 22.244C21.32 22.946 22.555 23.921 23.439 25.169C24.349 26.391 24.804 27.886 24.804 29.654C24.804 31.474 24.323 33.073 23.361 34.451C22.425 35.803 21.086 36.856 19.344 37.61C17.602 38.364 15.522 38.741 13.104 38.741ZM38.5707 38.273C36.4127 38.273 34.6707 38.013 33.3447 37.493C32.0187 36.947 31.0437 36.05 30.4197 34.802C29.8217 33.528 29.5227 31.812 29.5227 29.654V10.856H35.3337V29.888C35.3337 30.902 35.5937 31.682 36.1137 32.228C36.6597 32.748 37.4267 33.008 38.4147 33.008H41.5737V38.273H38.5707ZM26.2857 21.191V16.628H41.5737V21.191H26.2857ZM56.1067 38.741C54.2347 38.741 52.5707 38.455 51.1147 37.883C49.6587 37.285 48.4237 36.479 47.4097 35.465C46.4217 34.451 45.6677 33.294 45.1477 31.994C44.6277 30.668 44.3677 29.277 44.3677 27.821V26.924C44.3677 25.442 44.6277 24.038 45.1477 22.712C45.6937 21.36 46.4737 20.177 47.4877 19.163C48.5277 18.149 49.7757 17.356 51.2317 16.784C52.6877 16.186 54.3127 15.887 56.1067 15.887C57.9527 15.887 59.5907 16.186 61.0207 16.784C62.4767 17.356 63.7117 18.149 64.7257 19.163C65.7397 20.177 66.5197 21.36 67.0657 22.712C67.6117 24.038 67.8847 25.442 67.8847 26.924V27.821C67.8847 29.277 67.6247 30.668 67.1047 31.994C66.5847 33.294 65.8177 34.451 64.8037 35.465C63.8157 36.479 62.5937 37.285 61.1377 37.883C59.6817 38.455 58.0047 38.741 56.1067 38.741ZM56.1067 33.476C57.3287 33.476 58.3427 33.216 59.1487 32.696C59.9547 32.176 60.5657 31.448 60.9817 30.512C61.4237 29.576 61.6447 28.536 61.6447 27.392C61.6447 26.17 61.4237 25.104 60.9817 24.194C60.5397 23.258 59.9027 22.517 59.0707 21.971C58.2647 21.425 57.2767 21.152 56.1067 21.152C54.9627 21.152 53.9747 21.425 53.1427 21.971C52.3107 22.517 51.6737 23.258 51.2317 24.194C50.8157 25.104 50.6077 26.17 50.6077 27.392C50.6077 28.536 50.8157 29.576 51.2317 30.512C51.6477 31.448 52.2717 32.176 53.1037 32.696C53.9357 33.216 54.9367 33.476 56.1067 33.476ZM81.8336 38.741C79.9876 38.741 78.3756 38.442 76.9976 37.844C75.6456 37.22 74.5146 36.388 73.6046 35.348C72.6946 34.308 72.0186 33.138 71.5766 31.838C71.1346 30.512 70.9136 29.147 70.9136 27.743V27.002C70.9136 25.546 71.1476 24.155 71.6156 22.829C72.0836 21.477 72.7726 20.281 73.6826 19.241C74.5926 18.201 75.7236 17.382 77.0756 16.784C78.4536 16.186 80.0266 15.887 81.7946 15.887C83.7186 15.887 85.4216 16.264 86.9036 17.018C88.3856 17.746 89.5686 18.773 90.4526 20.099C91.3366 21.425 91.8306 22.946 91.9346 24.662H85.8116C85.7076 23.7 85.3176 22.894 84.6416 22.244C83.9916 21.568 83.0426 21.23 81.7946 21.23C80.7546 21.23 79.8836 21.49 79.1816 22.01C78.5056 22.53 77.9986 23.245 77.6606 24.155C77.3226 25.065 77.1536 26.144 77.1536 27.392C77.1536 28.536 77.3096 29.576 77.6216 30.512C77.9336 31.422 78.4276 32.137 79.1036 32.657C79.8056 33.151 80.7156 33.398 81.8336 33.398C82.6656 33.398 83.3676 33.255 83.9396 32.969C84.5376 32.657 85.0056 32.241 85.3436 31.721C85.7076 31.175 85.9286 30.551 86.0066 29.849H92.0906C92.0126 31.617 91.5186 33.177 90.6086 34.529C89.6986 35.855 88.4896 36.895 86.9816 37.649C85.4736 38.377 83.7576 38.741 81.8336 38.741ZM111.135 38L104.388 28.016H101.385L110.082 16.628H116.634L108.444 27.236L108.522 24.194L118.155 38H111.135ZM96.0814 38V9.53H102.321V38H96.0814ZM128.492 38.663C125.45 38.663 123.071 38.039 121.355 36.791C119.639 35.543 118.729 33.788 118.625 31.526H124.163C124.267 32.202 124.67 32.813 125.372 33.359C126.1 33.879 127.179 34.139 128.609 34.139C129.701 34.139 130.598 33.957 131.3 33.593C132.028 33.203 132.392 32.657 132.392 31.955C132.392 31.331 132.119 30.837 131.573 30.473C131.027 30.083 130.052 29.81 128.648 29.654L126.971 29.498C124.397 29.238 122.46 28.523 121.16 27.353C119.886 26.183 119.249 24.688 119.249 22.868C119.249 21.36 119.626 20.099 120.38 19.085C121.134 18.071 122.174 17.304 123.5 16.784C124.852 16.264 126.386 16.004 128.102 16.004C130.858 16.004 133.081 16.615 134.771 17.837C136.461 19.033 137.345 20.775 137.423 23.063H131.885C131.781 22.361 131.417 21.776 130.793 21.308C130.169 20.814 129.246 20.567 128.024 20.567C127.062 20.567 126.295 20.749 125.723 21.113C125.151 21.477 124.865 21.971 124.865 22.595C124.865 23.193 125.112 23.648 125.606 23.96C126.1 24.272 126.906 24.493 128.024 24.623L129.701 24.779C132.327 25.065 134.368 25.793 135.824 26.963C137.28 28.133 138.008 29.706 138.008 31.682C138.008 33.112 137.618 34.36 136.838 35.426C136.058 36.466 134.953 37.272 133.523 37.844C132.093 38.39 130.416 38.663 128.492 38.663Z" fill="black"/>
<path d="M154.263 38.741C151.689 38.741 149.479 38.299 147.633 37.415C145.787 36.505 144.279 35.322 143.109 33.866C141.939 32.384 141.068 30.798 140.496 29.108C139.95 27.392 139.677 25.728 139.677 24.116V23.258C139.677 21.49 139.963 19.748 140.535 18.032C141.107 16.29 141.978 14.717 143.148 13.313C144.344 11.909 145.839 10.791 147.633 9.959C149.453 9.101 151.598 8.672 154.068 8.672C156.642 8.672 158.917 9.153 160.893 10.115C162.869 11.077 164.442 12.416 165.612 14.132C166.808 15.822 167.51 17.811 167.718 20.099H161.283C161.101 18.955 160.685 17.98 160.035 17.174C159.385 16.368 158.54 15.744 157.5 15.302C156.486 14.86 155.342 14.639 154.068 14.639C152.794 14.639 151.663 14.86 150.675 15.302C149.687 15.744 148.855 16.368 148.179 17.174C147.529 17.98 147.022 18.942 146.658 20.06C146.32 21.152 146.151 22.374 146.151 23.726C146.151 25.052 146.32 26.274 146.658 27.392C147.022 28.484 147.542 29.446 148.218 30.278C148.92 31.084 149.778 31.708 150.792 32.15C151.806 32.566 152.963 32.774 154.263 32.774C156.239 32.774 157.903 32.293 159.255 31.331C160.633 30.369 161.465 29.043 161.751 27.353H168.147C167.913 29.433 167.211 31.344 166.041 33.086C164.897 34.802 163.324 36.18 161.322 37.22C159.346 38.234 156.993 38.741 154.263 38.741ZM172.039 38V9.53H178.279V25.949H177.343C177.343 23.791 177.616 21.971 178.162 20.489C178.708 19.007 179.514 17.889 180.58 17.135C181.646 16.355 182.985 15.965 184.597 15.965H184.87C187.236 15.965 189.043 16.81 190.291 18.5C191.539 20.164 192.163 22.608 192.163 25.832V38H185.923V25.442C185.923 24.272 185.572 23.336 184.87 22.634C184.194 21.906 183.297 21.542 182.179 21.542C181.009 21.542 180.06 21.919 179.332 22.673C178.63 23.427 178.279 24.428 178.279 25.676V38H172.039ZM207.27 38.741C205.45 38.741 203.838 38.429 202.434 37.805C201.056 37.181 199.899 36.349 198.963 35.309C198.053 34.243 197.351 33.06 196.857 31.76C196.389 30.434 196.155 29.082 196.155 27.704V26.924C196.155 25.494 196.389 24.129 196.857 22.829C197.351 21.503 198.053 20.32 198.963 19.28C199.873 18.24 201.004 17.421 202.356 16.823C203.734 16.199 205.294 15.887 207.036 15.887C209.324 15.887 211.248 16.407 212.808 17.447C214.394 18.461 215.603 19.8 216.435 21.464C217.267 23.102 217.683 24.896 217.683 26.846V28.952H198.768V25.403H213.9L211.872 27.041C211.872 25.767 211.69 24.675 211.326 23.765C210.962 22.855 210.416 22.166 209.688 21.698C208.986 21.204 208.102 20.957 207.036 20.957C205.944 20.957 205.021 21.204 204.267 21.698C203.513 22.192 202.941 22.92 202.551 23.882C202.161 24.818 201.966 25.975 201.966 27.353C201.966 28.627 202.148 29.745 202.512 30.707C202.876 31.643 203.448 32.371 204.228 32.891C205.008 33.411 206.022 33.671 207.27 33.671C208.414 33.671 209.35 33.45 210.078 33.008C210.806 32.566 211.3 32.02 211.56 31.37H217.293C216.981 32.8 216.37 34.074 215.46 35.192C214.55 36.31 213.406 37.181 212.028 37.805C210.65 38.429 209.064 38.741 207.27 38.741ZM231.412 38.741C229.566 38.741 227.954 38.442 226.576 37.844C225.224 37.22 224.093 36.388 223.183 35.348C222.273 34.308 221.597 33.138 221.155 31.838C220.713 30.512 220.492 29.147 220.492 27.743V27.002C220.492 25.546 220.726 24.155 221.194 22.829C221.662 21.477 222.351 20.281 223.261 19.241C224.171 18.201 225.302 17.382 226.654 16.784C228.032 16.186 229.605 15.887 231.373 15.887C233.297 15.887 235 16.264 236.482 17.018C237.964 17.746 239.147 18.773 240.031 20.099C240.915 21.425 241.409 22.946 241.513 24.662H235.39C235.286 23.7 234.896 22.894 234.22 22.244C233.57 21.568 232.621 21.23 231.373 21.23C230.333 21.23 229.462 21.49 228.76 22.01C228.084 22.53 227.577 23.245 227.239 24.155C226.901 25.065 226.732 26.144 226.732 27.392C226.732 28.536 226.888 29.576 227.2 30.512C227.512 31.422 228.006 32.137 228.682 32.657C229.384 33.151 230.294 33.398 231.412 33.398C232.244 33.398 232.946 33.255 233.518 32.969C234.116 32.657 234.584 32.241 234.922 31.721C235.286 31.175 235.507 30.551 235.585 29.849H241.669C241.591 31.617 241.097 33.177 240.187 34.529C239.277 35.855 238.068 36.895 236.56 37.649C235.052 38.377 233.336 38.741 231.412 38.741ZM260.714 38L253.967 28.016H250.964L259.661 16.628H266.213L258.023 27.236L258.101 24.194L267.734 38H260.714ZM245.66 38V9.53H251.9V38H245.66ZM279.557 38.741C277.737 38.741 276.125 38.429 274.721 37.805C273.343 37.181 272.186 36.349 271.25 35.309C270.34 34.243 269.638 33.06 269.144 31.76C268.676 30.434 268.442 29.082 268.442 27.704V26.924C268.442 25.494 268.676 24.129 269.144 22.829C269.638 21.503 270.34 20.32 271.25 19.28C272.16 18.24 273.291 17.421 274.643 16.823C276.021 16.199 277.581 15.887 279.323 15.887C281.611 15.887 283.535 16.407 285.095 17.447C286.681 18.461 287.89 19.8 288.722 21.464C289.554 23.102 289.97 24.896 289.97 26.846V28.952H271.055V25.403H286.187L284.159 27.041C284.159 25.767 283.977 24.675 283.613 23.765C283.249 22.855 282.703 22.166 281.975 21.698C281.273 21.204 280.389 20.957 279.323 20.957C278.231 20.957 277.308 21.204 276.554 21.698C275.8 22.192 275.228 22.92 274.838 23.882C274.448 24.818 274.253 25.975 274.253 27.353C274.253 28.627 274.435 29.745 274.799 30.707C275.163 31.643 275.735 32.371 276.515 32.891C277.295 33.411 278.309 33.671 279.557 33.671C280.701 33.671 281.637 33.45 282.365 33.008C283.093 32.566 283.587 32.02 283.847 31.37H289.58C289.268 32.8 288.657 34.074 287.747 35.192C286.837 36.31 285.693 37.181 284.315 37.805C282.937 38.429 281.351 38.741 279.557 38.741ZM294.105 38V16.628H299.058V25.793H298.941C298.941 22.777 299.578 20.45 300.852 18.812C302.152 17.174 304.024 16.355 306.468 16.355H307.287V21.737H305.727C304.011 21.737 302.685 22.205 301.749 23.141C300.813 24.051 300.345 25.377 300.345 27.119V38H294.105Z" fill="#FCD650"/>
</svg>
